<svg width="140" height="92" viewBox="0 0 140 92" fill="none" xmlns="http://www.w3.org/2000/svg">
<path d="M86.3501 62.3449C105.251 51.6607 129.164 58.2763 140 77.1869L123.693 86.6733C104.706 97.7187 80.4218 91.0259 69.6577 71.7808L86.3501 62.3449Z" fill="white"/>
<path d="M79.4356 54.8549C90.2328 36.0119 114.146 29.5558 132.847 40.4348L123.072 57.4939C112.275 76.3369 88.3619 82.793 69.6606 71.914L79.4356 54.8549Z" fill="white" fill-opacity="0.8"/>
<path d="M68.8149 53.0294C68.8149 30.1765 87.2015 11.6506 109.882 11.6506V30.9607C109.882 53.8136 91.4959 72.3395 68.8149 72.3395V53.0294Z" fill="white" fill-opacity="0.8"/>
<path d="M59.1261 53.8165C48.329 34.9735 54.7365 10.879 73.4377 0L83.2127 17.0591C94.0098 35.9021 87.6023 59.9966 68.9011 70.8756L59.1261 53.8165Z" fill="white" fill-opacity="0.8"/>
<path d="M68.8156 50.2708C68.8156 28.9415 51.6548 11.6506 30.4859 11.6506V33.7193C30.4859 55.0486 47.6467 72.3395 68.8156 72.3395V50.2708Z" fill="white" fill-opacity="0.8"/>
<path d="M60.5649 54.8549C49.7677 36.0119 25.8545 29.5558 7.15332 40.4348L16.9283 57.4939C27.7255 76.3369 51.6386 82.793 70.3399 71.914L60.5649 54.8549Z" fill="white" fill-opacity="0.8"/>
<path d="M53.6499 62.3449C34.7495 51.6607 10.8359 58.2763 0 77.1869L16.3073 86.6733C35.2945 97.7187 59.5782 91.0259 70.3423 71.7808L53.6499 62.3449Z" fill="white"/>
</svg>
